<?xml version="1.0" standalone="no"?>
<!DOCTYPE svg PUBLIC "-//W3C//DTD SVG 20010904//EN"
 "http://www.w3.org/TR/2001/REC-SVG-20010904/DTD/svg10.dtd">
<svg version="1.0" xmlns="http://www.w3.org/2000/svg"
 width="900.000000pt" height="900.000000pt" viewBox="0 0 900.000000 900.000000"
 preserveAspectRatio="xMidYMid meet">

<g transform="translate(0.000000,900.000000) scale(0.100000,-0.100000)"
fill="#fff" stroke="none">
<path d="M3559 8936 c-2 -2 -85 -6 -184 -9 -636 -22 -1319 -143 -1870 -331
-670 -228 -1154 -561 -1344 -926 -67 -128 -94 -235 -94 -375 0 -101 5 -134 27
-210 114 -378 505 -720 1126 -983 1379 -584 3567 -597 4985 -30 676 271 1094
629 1206 1033 33 118 31 279 -5 398 -50 167 -141 311 -290 460 -548 547 -1706
914 -3051 967 -245 10 -498 13 -506 6z"/>
<path d="M64 6130 c2 -738 -1 -701 82 -879 131 -280 409 -526 844 -745 971
-491 2475 -676 3855 -476 179 26 454 75 460 82 2 2 17 39 34 83 152 382 453
743 821 985 328 215 684 325 1121 345 l147 7 6 30 c3 17 6 299 5 627 l0 596
-22 -95 c-41 -177 -131 -332 -287 -494 -350 -364 -1020 -669 -1835 -836 -345
-71 -631 -108 -1075 -140 -193 -13 -924 -4 -1135 14 -1239 110 -2232 462
-2716 963 -163 168 -248 320 -293 523 -13 59 -14 0 -12 -590z"/>
<path d="M61 4480 c-1 -365 3 -639 9 -689 55 -434 500 -841 1240 -1134 568
-225 1255 -360 2045 -403 174 -9 719 -6 874 5 l124 9 424 423 c375 375 423
427 419 449 -13 60 -18 311 -7 394 6 49 9 91 8 93 -2 1 -71 -8 -153 -22 -766
-127 -1646 -134 -2444 -19 -626 89 -1263 282 -1680 507 -485 262 -769 569
-841 907 l-18 85 0 -605z"/>
<path d="M7198 4840 c-393 -36 -766 -235 -1013 -543 -490 -612 -417 -1498 166
-2018 300 -268 696 -401 1096 -368 653 53 1185 523 1325 1172 32 147 32 437 0
584 -63 290 -197 539 -402 743 -258 258 -564 400 -927 430 -65 5 -127 9 -138
8 -11 0 -59 -4 -107 -8z m737 -475 c96 -21 166 -57 239 -126 208 -194 206
-519 -3 -711 -225 -206 -582 -159 -745 100 -184 293 -5 684 339 741 74 13 93
12 170 -4z"/>
<path d="M64 2725 c2 -753 -2 -710 92 -900 225 -458 898 -854 1836 -1079 427
-103 832 -160 1363 -191 l100 -6 0 238 c0 206 3 254 23 355 47 245 106 359
276 528 64 63 116 117 116 121 0 3 -132 9 -292 12 -740 17 -1379 115 -1967
302 -897 285 -1443 716 -1537 1215 -10 54 -12 -49 -10 -595z"/>
<path d="M4920 1878 c-410 -413 -750 -760 -756 -772 -27 -51 -39 -165 -38
-361 0 -213 17 -324 63 -413 39 -76 120 -121 266 -147 160 -28 471 -20 583 16
19 6 61 35 94 65 l61 54 221 0 c247 0 265 4 306 72 18 30 20 51 20 256 l0 222
215 0 c243 0 265 5 311 66 l29 37 5 226 5 226 222 0 c208 0 223 1 250 21 39
28 63 80 63 135 l0 46 -99 32 c-116 38 -311 131 -413 197 -40 25 -115 80 -166
121 l-92 75 -643 -648 c-386 -389 -655 -652 -674 -661 -44 -18 -90 -16 -140 6
-47 22 -71 53 -84 108 -20 89 -43 62 672 778 l660 661 -50 74 c-27 41 -70 116
-96 165 -26 50 -48 91 -49 91 0 1 -336 -336 -746 -748z"/>
</g>
</svg>
